<svg xmlns="http://www.w3.org/2000/svg" xmlns:xlink="http://www.w3.org/1999/xlink" width="1000" height="1000" viewBox="0 0 1000 1000">
  <defs>
    <clipPath id="clip-Calvicii_2_Blank_Background">
      <rect width="1000" height="1000"/>
    </clipPath>
  </defs>
  <g id="Calvicii_2_Blank_Background" data-name="Calvicii 2 Blank Background" clip-path="url(#clip-Calvicii_2_Blank_Background)">
    <path id="Subtraction_2" data-name="Subtraction 2" d="M-1815-848a327.4,327.4,0,0,1-65.5-6.6A323.383,323.383,0,0,1-1941.5-873.54a325.068,325.068,0,0,1-55.206-29.966,327.272,327.272,0,0,1-48.1-39.685,327.425,327.425,0,0,1-39.685-48.1,325.1,325.1,0,0,1-29.965-55.206A323.309,323.309,0,0,1-2133.4-1107.5a327.435,327.435,0,0,1-6.6-65.5,327.428,327.428,0,0,1,6.6-65.5,323.32,323.32,0,0,1,18.937-61.006,325.016,325.016,0,0,1,29.965-55.206,327.356,327.356,0,0,1,39.685-48.1,327.326,327.326,0,0,1,48.1-39.685,325.02,325.02,0,0,1,55.206-29.965A323.37,323.37,0,0,1-1880.5-1491.4a327.4,327.4,0,0,1,65.5-6.6,327.411,327.411,0,0,1,65.5,6.6,323.374,323.374,0,0,1,61.006,18.937,325.03,325.03,0,0,1,55.206,29.965,327.311,327.311,0,0,1,48.1,39.685,327.336,327.336,0,0,1,39.685,48.1c4.3,6.364,8.43,12.975,12.276,19.65l-43.4,25.039C-1625.742-1395.131-1717.08-1448-1815-1448c-151.635,0-275,123.365-275,275s123.364,275,275,275c97.567,0,188.739-52.583,237.937-137.228l43.4,25.039c-3.724,6.423-7.709,12.782-11.843,18.9a327.347,327.347,0,0,1-39.685,48.1,327.254,327.254,0,0,1-48.1,39.685A325.073,325.073,0,0,1-1688.5-873.54,323.383,323.383,0,0,1-1749.5-854.6,327.4,327.4,0,0,1-1815-848Z" transform="translate(2315 1673)"/>
    <path id="Path_2" data-name="Path 2" d="M100,50A50,50,0,0,1,0,50C0,22.386,100,22.386,100,50Z" transform="translate(563 400)"/>
    <path id="Path_1" data-name="Path 1" d="M100,50A50,50,0,0,1,0,50C0,22.386,100,22.386,100,50Z" transform="translate(338 400)"/>
  </g>
</svg>
